<?xml version="1.0" encoding="UTF-8" standalone="no"?>
<svg
   xmlns:dc="http://purl.org/dc/elements/1.1/"
   xmlns:cc="http://creativecommons.org/ns#"
   xmlns:rdf="http://www.w3.org/1999/02/22-rdf-syntax-ns#"
   xmlns:svg="http://www.w3.org/2000/svg"
   xmlns="http://www.w3.org/2000/svg"
   id="svg8"
   version="1.1"
   viewBox="0 0 10.45692 10.45692"
   height="10.45692mm"
   width="10.45692mm">
  <defs
     id="defs2">
    <clipPath
       id="clipPath101"
       clipPathUnits="userSpaceOnUse">
      <rect
         style="fill:#fcaf3e;fill-opacity:1;stroke:none;stroke-width:0.43020561;stroke-linecap:round;stroke-linejoin:round;stroke-miterlimit:4;stroke-dasharray:none"
         id="rect103"
         width="10.45692"
         height="10.45692"
         x="-202.32303"
         y="166.07133" />
    </clipPath>
  </defs>
  <metadata
     id="metadata5">
    <rdf:RDF>
      <cc:Work
         rdf:about="">
        <dc:format>image/svg+xml</dc:format>
        <dc:type
           rdf:resource="http://purl.org/dc/dcmitype/StillImage" />
        <dc:title></dc:title>
      </cc:Work>
    </rdf:RDF>
  </metadata>
  <g
     transform="translate(202.32303,-166.07133)"
     id="layer1">
    <rect
       y="166.07133"
       x="-202.32303"
       height="10.45692"
       width="10.45692"
       id="rect18"
       style="fill:#fcaf3e;fill-opacity:1;stroke:none;stroke-width:0.43020561;stroke-linecap:round;stroke-linejoin:round;stroke-miterlimit:4;stroke-dasharray:none"
       ry="3.0078444" />
    <path
       id="text12"
       d="m -195.84748,166.42912 c -0.24094,-0.0117 -0.54755,0.0378 -0.91984,0.14934 -0.22177,0.069 -0.68899,0.24199 -1.40146,0.51832 -0.22267,0.0723 -0.44735,0.14408 -0.67334,0.21549 -0.2966,0.0953 -0.49946,0.18702 -0.60875,0.27543 -0.21014,0.17196 -0.35779,0.41745 -0.44339,0.73691 -0.10699,0.39932 -0.0555,0.73963 0.15452,1.02061 0.0474,0.0626 0.29087,0.28484 0.7307,0.66662 0.41101,0.35623 0.70258,0.67868 0.87488,0.96738 -0.15599,-0.0168 -0.2694,-0.0313 -0.34106,-0.0434 -0.0717,-0.0121 -0.11041,-0.008 -0.11576,0.0119 -0.009,0.0333 0.0936,0.13589 0.30799,0.30747 0.23989,0.19624 0.38145,0.32848 0.42375,0.39688 0.0749,0.11992 0.11714,0.18129 0.12713,0.18396 0.0166,0.004 0.0417,-0.0621 0.0749,-0.19947 0.0361,-0.16151 0.0804,-0.30132 0.13332,-0.41909 0.053,-0.11778 0.0802,-0.17806 0.0811,-0.18138 -0.0211,0.0122 -0.0434,0.015 -0.0667,0.009 -0.0566,-0.0152 -0.16918,-0.1879 -0.33745,-0.51831 -0.20302,-0.40037 -0.40873,-0.70325 -0.61753,-0.90899 -0.29704,-0.27576 -0.59254,-0.55145 -0.88625,-0.82631 -0.16115,-0.15731 -0.25385,-0.33686 -0.27802,-0.5395 -0.01,-0.0704 0.14127,-0.16182 0.4532,-0.2744 0.74307,-0.25743 1.2237,-0.41974 1.44126,-0.48628 0.94886,-0.31998 1.57958,-0.4378 1.89239,-0.35398 0.12312,0.033 0.21053,0.11858 0.26251,0.25735 0.0511,0.14208 0.0551,0.29479 0.0114,0.45785 -0.0544,0.20299 -0.15947,0.44779 -0.31471,0.73432 -0.021,0.0388 -0.0148,0.0295 -0.0331,0.0636 -0.11312,-0.10026 -0.20473,-0.18808 -0.25063,-0.24804 -0.21527,0.3922 -0.32989,0.58501 -0.34468,0.58187 -0.006,0.0537 0.0273,0.11797 0.10438,0.19379 0.16537,0.15487 0.33323,0.30851 0.50282,0.46095 0.18612,-0.13559 0.30871,-0.31499 0.36845,-0.53795 0.0187,-0.0699 -0.0478,-0.16781 -0.19947,-0.29404 -0.0286,-0.0235 -0.0452,-0.0395 -0.0713,-0.0615 0.0802,-0.12152 0.16207,-0.26051 0.2465,-0.4253 0.15459,-0.29741 0.25025,-0.51417 0.28681,-0.6506 0.0785,-0.29284 0.0886,-0.55065 0.0305,-0.77309 -0.0612,-0.23752 -0.1902,-0.3825 -0.38654,-0.43511 -0.0657,-0.0176 -0.13827,-0.0281 -0.21859,-0.032 z m -0.66352,2.55488 c 5.3e-4,-0.005 -7.9e-4,-0.0109 5.3e-4,-0.016 -0.003,0.0113 -0.003,0.0155 -5.3e-4,0.016 z m 0.0543,1.77973 c -0.0166,-0.004 -0.0417,0.0622 -0.0749,0.19948 -0.0361,0.16151 -0.0809,0.3008 -0.13384,0.41858 -0.053,0.11777 -0.0797,0.17857 -0.0806,0.1819 0.0211,-0.0122 0.0434,-0.0156 0.0667,-0.009 0.0566,0.0152 0.16867,0.18842 0.33694,0.51884 0.20302,0.40036 0.40924,0.70324 0.61805,0.90898 0.29704,0.27576 0.59253,0.55093 0.88625,0.82579 0.16114,0.15731 0.25333,0.33738 0.2775,0.54002 0.01,0.0704 -0.14127,0.16182 -0.4532,0.2744 -0.74307,0.25743 -1.22318,0.41922 -1.44074,0.48576 -0.94886,0.31998 -1.57959,0.43832 -1.89239,0.3545 -0.12313,-0.033 -0.21105,-0.1191 -0.26304,-0.25786 -0.0511,-0.14209 -0.0545,-0.29428 -0.0108,-0.45734 0.0544,-0.20299 0.15895,-0.44779 0.31419,-0.73432 0.021,-0.0388 0.0148,-0.0295 0.0331,-0.0636 0.11312,0.10026 0.20526,0.18808 0.25115,0.24804 0.21683,-0.39505 0.33124,-0.58844 0.34468,-0.58239 0.005,-0.0536 -0.028,-0.11761 -0.1049,-0.19327 -0.16537,-0.15488 -0.33271,-0.30852 -0.5023,-0.46095 -0.18613,0.13559 -0.30923,0.31499 -0.36897,0.53795 -0.0187,0.0699 0.0478,0.1678 0.19948,0.29404 0.0287,0.0236 0.0452,0.04 0.0713,0.062 -0.0801,0.12138 -0.16223,0.26029 -0.2465,0.42478 -0.15459,0.29741 -0.24973,0.51417 -0.28628,0.65061 -0.0785,0.29283 -0.0891,0.55064 -0.031,0.77307 0.0612,0.23753 0.1902,0.38251 0.38654,0.43512 0.26289,0.0704 0.64256,0.0309 1.13895,-0.11782 0.22177,-0.069 0.68899,-0.24148 1.40146,-0.5178 0.22267,-0.0723 0.44683,-0.14408 0.67283,-0.21549 0.29659,-0.0953 0.49946,-0.18702 0.60875,-0.27544 0.21014,-0.17195 0.3583,-0.41796 0.4439,-0.73742 0.107,-0.39932 0.0555,-0.73911 -0.15451,-1.02009 -0.0474,-0.0626 -0.2914,-0.28484 -0.73123,-0.66663 -0.41101,-0.35623 -0.70257,-0.67868 -0.87488,-0.96738 0.15599,0.0168 0.26992,0.0308 0.34158,0.0429 0.0717,0.0121 0.10989,0.009 0.11524,-0.0114 0.009,-0.0333 -0.0936,-0.13589 -0.30799,-0.30747 -0.23988,-0.19624 -0.38093,-0.32847 -0.42323,-0.39688 -0.0749,-0.11992 -0.11714,-0.18129 -0.12712,-0.18396 z m -1.22111,2.85151 c -5.3e-4,0.005 7.9e-4,0.0113 -5.3e-4,0.0165 0.003,-0.0109 0.003,-0.0156 5.3e-4,-0.0165 z"
       style="font-style:normal;font-variant:normal;font-weight:normal;font-stretch:normal;font-size:10.58333302px;line-height:1.25;font-family:'DecoType Thuluth';-inkscape-font-specification:'DecoType Thuluth';letter-spacing:0px;word-spacing:0px;fill:#000000;fill-opacity:1;stroke:none;stroke-width:0.26458332" />
  </g>
</svg>
