<?xml version="1.0" standalone="no"?>
<!DOCTYPE svg PUBLIC "-//W3C//DTD SVG 20010904//EN"
 "http://www.w3.org/TR/2001/REC-SVG-20010904/DTD/svg10.dtd">
<svg version="1.0" xmlns="http://www.w3.org/2000/svg"
 width="700.000000pt" height="700.000000pt" viewBox="0 0 700.000000 700.000000"
 preserveAspectRatio="xMidYMid meet">
<metadata>
Created by potrace 1.14, written by Peter Selinger 2001-2017
</metadata>
<g transform="translate(0.000000,700.000000) scale(0.100000,-0.100000)"
fill="#000000" stroke="none">
<path d="M1802 6989 c-394 -50 -701 -172 -1000 -395 -93 -69 -261 -225 -317
-294 -78 -96 -98 -124 -146 -194 -29 -44 -63 -98 -75 -120 -12 -23 -33 -62
-46 -87 -47 -88 -155 -369 -142 -369 3 0 0 -8 -5 -19 -6 -10 -13 -31 -16 -47
-2 -16 -7 -40 -10 -54 -41 -196 -39 -117 -41 -1860 -2 -1464 1 -1735 20 -1850
15 -94 51 -237 80 -325 32 -95 45 -127 94 -235 25 -55 119 -215 159 -273 248
-349 576 -603 963 -744 103 -37 296 -87 381 -98 30 -4 81 -11 114 -15 78 -11
3292 -11 3370 0 33 4 83 11 110 14 28 4 88 16 135 26 47 11 95 22 107 25 49
11 203 69 288 108 482 222 849 613 1041 1109 43 110 86 262 100 353 32 208 32
212 32 1845 0 894 -4 1659 -8 1700 -16 134 -22 167 -52 289 -73 301 -234 608
-434 830 -22 26 -54 61 -70 80 -39 45 -192 175 -281 240 -199 144 -458 259
-718 320 -209 49 -192 49 -1935 49 -899 -1 -1663 -4 -1698 -9z m2680 -249
c113 -33 207 -131 246 -257 47 -153 47 -311 -2 -528 -27 -121 -214 -509 -349
-726 -9 -15 1 -29 66 -92 90 -86 111 -126 96 -183 -25 -91 -83 -188 -161 -268
l-77 -78 -92 83 c-51 46 -107 98 -125 114 -17 17 -59 56 -93 88 -34 32 -71 72
-81 90 -20 33 -26 73 -12 79 11 4 79 117 177 294 l45 80 80 -79 c44 -43 84
-75 90 -72 21 13 168 329 205 440 72 212 56 379 -47 496 -71 80 -211 99 -489
64 -27 -3 -94 -16 -231 -44 -201 -42 -677 -192 -1378 -434 -382 -132 -469
-169 -521 -221 -22 -22 -26 -33 -22 -64 14 -109 77 -232 165 -322 53 -55 313
-300 328 -310 15 -10 274 -256 320 -305 113 -118 236 -302 362 -540 160 -302
209 -375 254 -375 13 0 24 -2 24 -5 0 -2 -18 -45 -40 -96 -22 -50 -56 -148
-75 -218 -47 -170 -57 -201 -66 -207 -5 -2 -31 30 -60 73 -65 98 -128 160
-365 357 -103 85 -157 142 -151 159 4 13 54 16 107 5 19 -3 63 -9 98 -12 35
-4 66 -7 70 -7 21 -3 20 5 -4 44 -69 109 -208 270 -365 423 -92 90 -134 128
-274 249 -38 33 -81 71 -97 85 -15 14 -53 48 -85 75 -31 28 -100 93 -153 145
-108 107 -156 189 -189 320 -66 262 35 627 236 853 64 73 186 150 303 192 146
53 206 73 404 136 176 56 598 209 691 250 45 20 377 138 470 167 107 33 258
71 315 78 19 2 55 8 80 13 65 13 316 6 372 -9z m-505 -2952 c58 -88 119 -150
283 -288 275 -230 296 -264 148 -242 -40 6 -100 14 -133 18 -33 3 -63 8 -67
11 -37 21 79 -146 181 -262 111 -126 249 -262 431 -420 69 -60 127 -112 130
-115 3 -3 43 -39 90 -80 215 -189 291 -283 334 -416 27 -83 29 -94 31 -214 8
-356 -189 -721 -455 -842 -93 -42 -379 -146 -420 -153 -37 -6 -362 -119 -560
-195 -576 -221 -821 -300 -1047 -335 -93 -15 -261 -21 -308 -11 -11 2 -40 7
-65 11 -55 9 -135 47 -173 83 -166 158 -187 522 -49 862 45 112 176 371 246
487 31 51 56 95 56 99 0 3 -34 38 -75 78 -41 39 -81 88 -90 108 -13 33 -13 42
4 96 36 110 111 221 199 290 l37 30 60 -55 c352 -326 368 -346 328 -402 -11
-14 -63 -103 -117 -196 l-96 -171 -80 78 c-44 43 -83 78 -87 78 -13 0 -158
-304 -198 -415 -44 -120 -50 -154 -50 -270 0 -188 87 -307 240 -331 78 -12
204 -8 340 11 271 38 774 188 1650 493 266 92 314 111 392 152 108 55 118 72
97 159 -26 114 -84 211 -180 306 -48 47 -81 78 -244 230 -416 386 -419 390
-519 530 -99 140 -130 192 -271 460 -104 197 -167 285 -206 285 -13 0 -24 2
-24 4 0 2 20 51 44 108 24 56 54 139 66 183 53 196 66 235 75 235 3 0 26 -33
52 -72z"/>
</g>
</svg>
